<?xml version="1.0" encoding="utf-8"?>
<svg version="1.1" xmlns="http://www.w3.org/2000/svg" xmlns:xlink="http://www.w3.org/1999/xlink" x="0px" y="0px" width="500px"
	 height="600px" viewBox="0 0 500 600" enable-background="new 0 0 500 600" xml:space="preserve">
<g id="Layer_1">
	<path fill-rule="evenodd" clip-rule="evenodd" fill="#33569A" d="M284.517,134.59c-6.577-0.303-12.878-2.098-17.498-6.797
		c-5.117-5.195-6.727-12.462-6.727-19.91c0-7.445,2.521-13.835,7.568-19.175c3.927-4.153,8.589-6.684,13.98-7.606
		c-5.83-17.287-17.337-33.721-38.701-39.79c-16.287-5.79-35.656-3.708-66.299,8.019C123.449,76.02,86.253,165.699,97.724,277.815
		c1.556,15.217,4.643,31.028,8.047,46.961c-1.379-111.386,18.579-172.396,42.485-205.103c30.768-41.719,59.081-37.725,74.66-33.299
		c30.049,8.537,26.572,49.569,6.12,77.315c-20.453,27.746-44.354,46.605-84.389,42.387c92.28,53.801,82.652,142.243,74.914,169.48
		c-12.405,43.665-63.146,83.429-125.011,65.854c-65.348-19.613-84.28-96.648-12.93-196.621
		c-30.266,20.695-56.574,55.037-67.128,92.783c-16.648,59.539,5.389,131.912,86.212,155.921c40.832,11.6,91.863-5.191,121.715-35.41
		c17.054-17.264,27.697-38.768,31.495-60.182c2.497-14.748,12.544-115.606-61.211-178.396
		C263.851,198.992,279.405,154.3,284.517,134.59z"/>
</g>
<g id="Layer_4">
	<g>
		<defs>
			<path id="SVGID_1_" d="M432.689,444.424c33.061,2.018,55.635-25.045,55.635-25.045s-5.971-16.965-26.914-6.598
				c-20.65,8.594-32.565,10.561-44.359-0.711c-7.557-7.221-10.568-13.154-11.725-24.525c0,0,20.117,3.234,40.1-0.338
				c21.119-3.771,42.166-13.418,42.166-38.951c0-7.666-3.061-18.6-11.074-27.176c-8.617-9.227-26.893-16.502-42.061-16.502
				c-18.371,0-65.818,9.941-65.818,72.02c0,6.947,0.961,31.267,21.289,50.105C399.422,436.057,413.078,443.236,432.689,444.424
				L432.689,444.424z M433.201,329.147c30.52-0.363,21.84,23.978,20.016,26.762c-13.971,16.57-41.977,8.607-49.482,7.898
				C404.184,360.893,404.81,331.811,433.201,329.147L433.201,329.147z"/>
		</defs>
		<use xlink:href="#SVGID_1_"  overflow="visible" fill="#010101"/>
		<clipPath id="SVGID_2_">
			<use xlink:href="#SVGID_1_"  overflow="visible"/>
		</clipPath>
	</g>
	<path fill="#010101" d="M331.691,420.178c-20.65,8.594-32.564,10.561-44.359-0.713c-7.557-7.221-10.568-13.152-11.723-24.523
		c0,0,20.115,3.232,40.1-0.338c21.117-3.773,42.164-13.418,42.164-38.953c0-7.664-3.06-18.598-11.074-27.176
		c-8.617-9.225-26.891-16.5-42.059-16.5c-10.257,0-29.577,3.104-44.643,16.646c6.132,34.048,2.996,62.039,1.73,69.278
		c-1.719,9.387-4.797,18.79-9.193,27.847c2.169,2.852,4.668,5.66,7.575,8.354c9.496,9.353,23.15,16.533,42.762,17.721
		c33.061,2.016,55.635-25.045,55.635-25.045S352.635,409.81,331.691,420.178z M303.484,336.541
		c30.518-0.363,21.838,23.979,20.016,26.762c-13.973,16.572-41.979,8.609-49.482,7.9
		C274.465,368.289,275.092,339.207,303.484,336.541z"/>
</g>
<g id="Layer_3">
	<g>
		<g>
			<defs>
				<path id="SVGID_3_" d="M390.33,291.547c8.512,0,13.705-2.971,18.273-6.219c6.147-4.372,11.443-12.28,8.193-24.079
					c-8.066,2.913-36.107,14.564-45.994-25.193c-2.689-28.239-2.689-55.277-2.689-55.277l11.199-0.672
					c20.891,0,28.102-19.406,25.637-30.163c-8.289,0.896-38.445,2.016-38.445,2.016s-3.586-41.265-2.018-46.644
					c-19.043,1.704-34.818,6.029-34.818,34.368l4.705,86.034C334.373,256.79,357.703,291.547,390.33,291.547L390.33,291.547z"/>
			</defs>
			<use xlink:href="#SVGID_3_"  overflow="visible" fill="#010101"/>
			<clipPath id="SVGID_4_">
				<use xlink:href="#SVGID_3_"  overflow="visible"/>
			</clipPath>
		</g>
	</g>
	<g>
		<defs>
			<path id="SVGID_5_" d="M307.055,295.001c22.141,0,26.996-9.92,26.522-29.315c-9.133,5.445-14.727,5.336-18.211,0.069
				c-3.055-4.619-3.143-13.206-3.916-25.492c-0.484-7.726-1.381-16.915-1.586-27.501c-1.119-31.375-2.016-54.223-2.016-54.223
				c-9.355,1.023-20.793,1.264-28.402,10.798c-6.092,7.635-6.34,21.044-5.443,38.973c0.896,17.929,2.687,48.617,2.687,48.617
				C277.363,287.331,295.996,295.537,307.055,295.001C307.055,295.001,287.787,295.001,307.055,295.001L307.055,295.001z"/>
		</defs>
		<use xlink:href="#SVGID_5_"  overflow="visible" fill="#010101"/>
		<clipPath id="SVGID_6_">
			<use xlink:href="#SVGID_5_"  overflow="visible"/>
		</clipPath>
	</g>
</g>
<g id="Layer_2">
	<path d="M272.605,121.967c3.633,3.694,8.727,4.867,13.932,4.867c5.164,0,9.496-1.845,13.004-5.539
		c3.506-3.691,5.26-8.182,5.26-13.473c0-5.289-1.082-9.829-4.588-13.623c-3.508-3.792-8.512-5.689-13.676-5.689
		c-5.305,0-9.748,1.897-13.334,5.689c-3.586,3.794-5.377,8.334-5.377,13.623C267.826,113.113,268.97,118.276,272.605,121.967
		L272.605,121.967z"/>
	<g>
		<g>
			<path d="M33.295,533.168c-0.963-0.854-1.966-1.431-3.009-1.725c-1.043-0.294-2.181-0.441-3.411-0.441
				c-2.836,0-4.855,0.682-6.059,2.046s-1.806,3.599-1.806,6.701v5.296H31.77v2.648c0,1.017-0.415,1.913-1.244,2.688
				c-0.83,0.775-2.02,1.163-3.571,1.163h-8.024v30.334h-2.759c-1.624,0-2.787-0.481-3.489-1.444
				c-0.704-0.963-1.055-2.22-1.055-3.771v-37.717c0-1.872,0.323-3.704,0.973-5.497c0.649-1.792,1.596-3.383,2.84-4.775
				c1.244-1.39,2.737-2.5,4.482-3.33c1.746-0.828,3.742-1.243,5.989-1.243c1.284,0,2.407,0.16,3.371,0.481
				c0.963,0.32,1.778,0.749,2.447,1.283c0.668,0.536,1.164,1.111,1.485,1.726c0.321,0.616,0.481,1.191,0.481,1.726v3.852H33.295z"/>
			<path d="M77.189,559.57c0,3.639-0.455,6.875-1.364,9.71c-0.91,2.836-2.207,5.256-3.892,7.262
				c-1.685,2.007-3.719,3.531-6.099,4.574c-2.381,1.044-5.016,1.565-7.904,1.565c-2.836,0-5.471-0.521-7.905-1.565
				c-2.435-1.043-4.534-2.514-6.299-4.413c-1.766-1.898-3.157-4.159-4.173-6.781c-1.017-2.62-1.525-5.537-1.525-8.747
				c0-3.531,0.468-6.713,1.404-9.55c0.936-2.835,2.273-5.242,4.013-7.222c1.738-1.979,3.824-3.504,6.259-4.574
				c2.434-1.07,5.176-1.605,8.226-1.605c2.835,0,5.443,0.51,7.824,1.525c2.38,1.017,4.414,2.461,6.099,4.333
				c1.685,1.873,2.996,4.12,3.932,6.741C76.721,553.444,77.189,556.36,77.189,559.57z M69.807,561.255
				c0-5.349-1.097-9.375-3.29-12.077c-2.194-2.701-5.404-4.053-9.63-4.053c-3.478,0-6.259,1.298-8.346,3.893
				s-3.13,6.139-3.13,10.633c0,4.976,1.15,8.907,3.451,11.796c2.3,2.89,5.563,4.334,9.791,4.334c1.818,0,3.423-0.361,4.815-1.084
				c1.39-0.722,2.554-1.725,3.491-3.009c0.935-1.284,1.645-2.821,2.126-4.614C69.566,565.281,69.807,563.342,69.807,561.255z"/>
			<path d="M109.53,547.934c-0.696-0.588-1.605-1.096-2.729-1.524c-1.124-0.428-2.407-0.642-3.852-0.642
				c-1.444,0-2.662,0.201-3.651,0.603c-0.99,0.402-1.793,1.06-2.407,1.972c-0.616,0.911-1.071,2.131-1.364,3.658
				c-0.294,1.528-0.441,3.446-0.441,5.751v24.128h-3.164c-1.353,0-2.395-0.468-3.125-1.404c-0.73-0.936-1.095-2.099-1.095-3.491
				v-19.74c0-5.991,1.324-10.525,3.972-13.603c2.648-3.076,6.059-4.614,10.232-4.614c2.941,0,5.016,0.543,6.219,1.626
				c1.204,1.084,1.806,2.34,1.806,3.767v3.515H109.53z"/>
			<path d="M142.189,539.026h14.766v2.379c0,1.322-0.455,2.381-1.364,3.173c-0.911,0.793-2.327,1.189-4.253,1.189h-9.068v21.322
				c0,3.058,0.588,5.271,1.766,6.639c1.176,1.368,2.941,2.052,5.296,2.052c1.336,0,2.608-0.08,3.812-0.241
				c1.204-0.16,2.179-0.481,2.929-0.963h0.401v2.568c0,1.819-0.67,3.197-2.006,4.133c-1.338,0.936-3.264,1.404-5.778,1.404
				c-4.821,0-8.327-1.23-10.518-3.691c-2.19-2.46-3.285-6.18-3.285-11.154v-27.927c0-2.621,0.622-4.842,1.866-6.661
				c0.541-0.748,1.298-1.444,2.272-2.086c0.973-0.643,1.73-0.963,2.272-0.963h0.893V539.026z"/>
			<path d="M198.421,581.879c-1.947,0-3.34-0.388-4.178-1.164c-0.838-0.774-1.257-1.966-1.257-3.57v-20.303
				c0-4.28-0.88-7.315-2.638-9.108c-1.759-1.792-4.291-2.688-7.595-2.688c-1.227,0-2.478,0.255-3.757,0.763
				c-1.279,0.509-2.425,1.271-3.438,2.287c-1.013,1.017-1.838,2.287-2.478,3.812c-0.64,1.524-0.959,3.304-0.959,5.337v24.636h-2.086
				c-1.819,0-3.129-0.388-3.932-1.164c-0.802-0.774-1.204-1.966-1.204-3.57v-53.044h2.167c1.658,0,2.942,0.4,3.852,1.203
				c0.909,0.803,1.364,2.221,1.364,4.253v16.13c1.551-2.889,3.371-4.867,5.457-5.938s4.119-1.605,6.099-1.605
				c5.082,0,9.108,1.472,12.078,4.414c2.969,2.942,4.454,7.623,4.454,14.043v25.278H198.421z"/>
			<path d="M246.671,553.069c0,1.874-0.255,3.491-0.763,4.855c-0.509,1.364-1.444,2.476-2.809,3.33
				c-1.364,0.856-3.224,1.484-5.577,1.886c-2.355,0.401-5.376,0.603-9.068,0.603h-10.593c0.374,3.585,1.751,6.514,4.133,8.787
				c2.379,2.274,5.577,3.41,9.589,3.41c3.316,0,6.005-0.441,8.065-1.324c2.059-0.883,3.704-1.912,4.936-3.089h0.401v3.209
				c0,2.247-1.191,4.133-3.571,5.658c-2.381,1.524-6.006,2.287-10.874,2.287c-2.943,0-5.645-0.536-8.105-1.605
				c-2.461-1.069-4.588-2.554-6.379-4.453c-1.793-1.898-3.184-4.159-4.173-6.781c-0.991-2.621-1.485-5.483-1.485-8.587
				c0-3.477,0.508-6.633,1.525-9.469c1.016-2.835,2.42-5.27,4.213-7.303c1.792-2.033,3.918-3.598,6.38-4.694
				c2.46-1.097,5.108-1.646,7.944-1.646c2.086,0,4.105,0.375,6.059,1.123c1.952,0.75,3.677,1.794,5.176,3.13
				c1.497,1.338,2.701,2.917,3.611,4.735C246.216,548.951,246.671,550.931,246.671,553.069z M239.609,553.417
				c0-1.169-0.201-2.271-0.602-3.309c-0.401-1.037-1.017-1.955-1.846-2.753c-0.83-0.797-1.873-1.434-3.129-1.913
				c-1.258-0.479-2.716-0.719-4.374-0.719c-1.766,0-3.358,0.333-4.775,0.997c-1.418,0.665-2.636,1.542-3.651,2.632
				c-1.017,1.091-1.819,2.313-2.407,3.669c-0.589,1.356-0.911,2.726-0.963,4.107l-0.081,1.756l9.71-0.16
				c2.568-0.053,4.655-0.16,6.26-0.319s2.835-0.398,3.691-0.718c0.855-0.318,1.431-0.745,1.725-1.276
				C239.461,554.879,239.609,554.215,239.609,553.417z"/>
			<path d="M296.824,533.168c-0.963-0.854-1.966-1.431-3.01-1.725c-1.043-0.294-2.18-0.441-3.41-0.441
				c-2.836,0-4.855,0.682-6.059,2.046c-1.204,1.364-1.806,3.599-1.806,6.701v5.296h12.76v2.648c0,1.017-0.415,1.913-1.244,2.688
				c-0.83,0.775-2.021,1.163-3.571,1.163h-8.024v30.334h-2.759c-1.624,0-2.787-0.481-3.489-1.444
				c-0.704-0.963-1.055-2.22-1.055-3.771v-37.717c0-1.872,0.323-3.704,0.973-5.497c0.649-1.792,1.597-3.383,2.84-4.775
				c1.244-1.39,2.737-2.5,4.483-3.33c1.745-0.828,3.741-1.243,5.988-1.243c1.284,0,2.407,0.16,3.37,0.481
				c0.963,0.32,1.778,0.749,2.448,1.283c0.668,0.536,1.163,1.111,1.484,1.726c0.32,0.616,0.481,1.191,0.481,1.726v3.852H296.824z"/>
			<path d="M338.231,563.422c0,6.313-1.552,11.102-4.654,14.364c-3.104,3.264-7.543,4.896-13.321,4.896
				c-2.622,0-5.016-0.441-7.182-1.324c-2.167-0.883-4.013-2.18-5.537-3.893c-1.525-1.711-2.702-3.798-3.531-6.259
				c-0.83-2.46-1.244-5.269-1.244-8.426v-23.834h2.272c3.406,0,5.11,1.899,5.11,5.697v17.735c0,4.387,0.982,7.718,2.947,9.99
				c1.963,2.274,4.513,3.411,7.645,3.411c3.344,0,5.865-1.016,7.564-3.05c1.698-2.032,2.548-5.377,2.548-10.031v-23.753h2.029
				c3.568,0,5.354,1.899,5.354,5.697V563.422z"/>
			<path d="M357.57,539.026h14.766v2.379c0,1.322-0.455,2.381-1.364,3.173c-0.91,0.793-2.327,1.189-4.253,1.189h-9.068v21.322
				c0,3.058,0.588,5.271,1.766,6.639c1.176,1.368,2.941,2.052,5.296,2.052c1.337,0,2.608-0.08,3.813-0.241
				c1.203-0.16,2.179-0.481,2.929-0.963h0.401v2.568c0,1.819-0.67,3.197-2.007,4.133c-1.338,0.936-3.264,1.404-5.777,1.404
				c-4.821,0-8.327-1.23-10.518-3.691c-2.19-2.46-3.285-6.18-3.285-11.154v-27.927c0-2.621,0.622-4.842,1.865-6.661
				c0.541-0.748,1.298-1.444,2.272-2.086c0.973-0.643,1.73-0.963,2.272-0.963h0.893V539.026z"/>
			<path d="M414.947,563.422c0,6.313-1.552,11.102-4.654,14.364c-3.104,3.264-7.543,4.896-13.321,4.896
				c-2.622,0-5.016-0.441-7.182-1.324c-2.167-0.883-4.013-2.18-5.537-3.893c-1.525-1.711-2.702-3.798-3.531-6.259
				c-0.83-2.46-1.244-5.269-1.244-8.426v-23.834h2.272c3.406,0,5.11,1.899,5.11,5.697v17.735c0,4.387,0.982,7.718,2.947,9.99
				c1.963,2.274,4.513,3.411,7.645,3.411c3.344,0,5.865-1.016,7.564-3.05c1.698-2.032,2.548-5.377,2.548-10.031v-23.753h2.029
				c3.568,0,5.354,1.899,5.354,5.697V563.422z"/>
			<path d="M448.409,547.934c-0.695-0.588-1.604-1.096-2.728-1.524c-1.124-0.428-2.408-0.642-3.853-0.642s-2.662,0.201-3.651,0.603
				c-0.99,0.402-1.793,1.06-2.407,1.972c-0.615,0.911-1.07,2.131-1.364,3.658c-0.295,1.528-0.441,3.446-0.441,5.751v24.128h-3.163
				c-1.354,0-2.396-0.468-3.125-1.404c-0.729-0.936-1.095-2.099-1.095-3.491v-19.74c0-5.991,1.324-10.525,3.973-13.603
				c2.647-3.076,6.059-4.614,10.231-4.614c2.941,0,5.016,0.543,6.219,1.626c1.204,1.084,1.806,2.34,1.806,3.767v3.515H448.409z"/>
			<path d="M490.378,553.069c0,1.874-0.254,3.491-0.762,4.855c-0.51,1.364-1.444,2.476-2.809,3.33
				c-1.364,0.856-3.225,1.484-5.578,1.886c-2.354,0.401-5.376,0.603-9.067,0.603h-10.593c0.373,3.585,1.751,6.514,4.133,8.787
				c2.38,2.274,5.577,3.41,9.59,3.41c3.316,0,6.005-0.441,8.064-1.324c2.059-0.883,3.704-1.912,4.936-3.089h0.401v3.209
				c0,2.247-1.191,4.133-3.571,5.658c-2.381,1.524-6.006,2.287-10.874,2.287c-2.942,0-5.645-0.536-8.104-1.605
				c-2.462-1.069-4.588-2.554-6.38-4.453c-1.793-1.898-3.184-4.159-4.173-6.781c-0.991-2.621-1.484-5.483-1.484-8.587
				c0-3.477,0.508-6.633,1.524-9.469c1.016-2.835,2.42-5.27,4.213-7.303c1.792-2.033,3.918-3.598,6.38-4.694
				c2.46-1.097,5.108-1.646,7.944-1.646c2.087,0,4.105,0.375,6.059,1.123c1.952,0.75,3.678,1.794,5.177,3.13
				c1.497,1.338,2.7,2.917,3.61,4.735C489.923,548.951,490.378,550.931,490.378,553.069z M483.316,553.417
				c0-1.169-0.2-2.271-0.602-3.309s-1.018-1.955-1.846-2.753c-0.83-0.797-1.874-1.434-3.13-1.913
				c-1.258-0.479-2.716-0.719-4.374-0.719c-1.765,0-3.357,0.333-4.774,0.997c-1.418,0.665-2.636,1.542-3.651,2.632
				c-1.017,1.091-1.819,2.313-2.407,3.669c-0.59,1.356-0.91,2.726-0.963,4.107l-0.08,1.756l9.71-0.16
				c2.567-0.053,4.654-0.16,6.259-0.319c1.605-0.159,2.835-0.398,3.691-0.718c0.855-0.318,1.431-0.745,1.726-1.276
				C483.168,554.879,483.316,554.215,483.316,553.417z"/>
		</g>
	</g>
</g>
</svg>
